<?xml version="1.0" encoding="UTF-8" standalone="no"?>
<!DOCTYPE svg PUBLIC "-//W3C//DTD SVG 1.1//EN" "http://www.w3.org/Graphics/SVG/1.1/DTD/svg11.dtd">
<svg version="1.1" xmlns="http://www.w3.org/2000/svg" xmlns:xlink="http://www.w3.org/1999/xlink" preserveAspectRatio="xMidYMid meet" viewBox="0 0 640 640" width="300" height="300"><defs><path d="M319.93 423.89L465.48 423.89L631.82 319.93L319.93 319.93L8.04 319.93L174.38 215.97L316.74 215.97" id="b7STUNTU5l"></path><path d="M319.93 423.89L465.48 423.89L631.82 319.93L319.93 319.93L8.04 319.93L174.38 215.97L316.74 215.97" id="a6H5fY2vC"></path><path d="M319.93 423.89L465.48 423.89L631.82 319.93L319.93 319.93L8.04 319.93L174.38 215.97L316.74 215.97" id="cxvTOblIf"></path><path d="M215.97 319.93L215.97 465.48L319.93 631.82L319.93 8.04L423.89 174.38L423.89 319.93" id="a1Dx3gUbeT"></path><path d="" id="c8DMdwTB6S"></path><path d="M423.89 174.38L215.97 465.48" id="aTRYM1PBe"></path><path d="M174.38 215.97L465.48 423.89" id="c1BvMYaqnA"></path><path d="M215.97 319.93L215.97 465.48L423.89 174.38L423.89 319.93L319.93 319.93L215.97 319.93Z" id="f5kD6JERGe"></path><clipPath id="clipc1hkGyhpXN"><use xlink:href="#f5kD6JERGe" opacity="1"></use></clipPath><path d="M319.93 215.97L319.93 423.89L465.48 423.89L174.38 215.97L319.93 215.97Z" id="cRG6ieY2c"></path></defs><g><g><g><g><use xlink:href="#b7STUNTU5l" opacity="1" fill-opacity="0" stroke="#ffffff" stroke-width="4" stroke-opacity="1"></use></g></g><g><g><use xlink:href="#a6H5fY2vC" opacity="1" fill-opacity="0" stroke="#ffffff" stroke-width="4" stroke-opacity="1"></use></g></g><g><g><use xlink:href="#cxvTOblIf" opacity="1" fill-opacity="0" stroke="#ffffff" stroke-width="4" stroke-opacity="1"></use></g></g><g><g><use xlink:href="#a1Dx3gUbeT" opacity="1" fill-opacity="0" stroke="#ffffff" stroke-width="4" stroke-opacity="1"></use></g></g><g><g><use xlink:href="#c8DMdwTB6S" opacity="1" fill-opacity="0" stroke="#ffffff" stroke-width="4" stroke-opacity="1"></use></g></g><g><g><use xlink:href="#aTRYM1PBe" opacity="1" fill-opacity="0" stroke="#ffffff" stroke-width="4" stroke-opacity="1"></use></g></g><g><g><use xlink:href="#c1BvMYaqnA" opacity="1" fill-opacity="0" stroke="#ffffff" stroke-width="4" stroke-opacity="1"></use></g></g><g><use xlink:href="#f5kD6JERGe" opacity="1" fill="#ffffff" fill-opacity="0.3"></use><g clip-path="url(#clipc1hkGyhpXN)"><use xlink:href="#f5kD6JERGe" opacity="1" fill-opacity="0" stroke="#ffffff" stroke-width="0" stroke-opacity="1"></use></g></g><g><use xlink:href="#cRG6ieY2c" opacity="1" fill="#ffffff" fill-opacity="0.3"></use><g><use xlink:href="#cRG6ieY2c" opacity="1" fill-opacity="0" stroke="#ffffff" stroke-width="0" stroke-opacity="1"></use></g></g></g></g></svg>