<?xml version="1.0" encoding="UTF-8" standalone="no"?>
<!DOCTYPE svg PUBLIC "-//W3C//DTD SVG 1.1//EN" "http://www.w3.org/Graphics/SVG/1.1/DTD/svg11.dtd">
<svg version="1.1" xmlns="http://www.w3.org/2000/svg" xmlns:xlink="http://www.w3.org/1999/xlink" preserveAspectRatio="xMidYMid meet" viewBox="0 0 640 640" width="300" height="300"><defs><path d="M350 310L420 310L500 260L350 260L200 260L280 210L348.47 210" id="cOY61ENYx"></path><path d="M350 310L420 310L500 260L350 260L200 260L280 210L348.47 210" id="d26xYJXCmb"></path><path d="M350 310L420 310L500 260L350 260L200 260L280 210L348.47 210" id="c3bSE2hrjj"></path><path d="M300 260L300 330L350 410L350 110L400 190L400 260" id="b92HeIPax"></path><path d="" id="c2rqeIK6co"></path><path d="M400 190L300 330" id="a4lHiGILGL"></path><path d="M280 210L420 310" id="asgbSd02A"></path><path d="M300 260L300 330L400 190L400 260L350 260L300 260Z" id="aMgmvA2FT"></path><clipPath id="clipb1fA3Lyy0e"><use xlink:href="#aMgmvA2FT" opacity="1"></use></clipPath><path d="M350 210L350 310L420 310L280 210L350 210Z" id="c13pBDPr9g"></path></defs><g><g><g><g><use xlink:href="#cOY61ENYx" opacity="1" fill-opacity="0" stroke="#ffffff" stroke-width="4" stroke-opacity="1"></use></g></g><g><g><use xlink:href="#d26xYJXCmb" opacity="1" fill-opacity="0" stroke="#ffffff" stroke-width="4" stroke-opacity="1"></use></g></g><g><g><use xlink:href="#c3bSE2hrjj" opacity="1" fill-opacity="0" stroke="#ffffff" stroke-width="4" stroke-opacity="1"></use></g></g><g><g><use xlink:href="#b92HeIPax" opacity="1" fill-opacity="0" stroke="#ffffff" stroke-width="4" stroke-opacity="1"></use></g></g><g><g><use xlink:href="#c2rqeIK6co" opacity="1" fill-opacity="0" stroke="#ffffff" stroke-width="4" stroke-opacity="1"></use></g></g><g><g><use xlink:href="#a4lHiGILGL" opacity="1" fill-opacity="0" stroke="#ffffff" stroke-width="4" stroke-opacity="1"></use></g></g><g><g><use xlink:href="#asgbSd02A" opacity="1" fill-opacity="0" stroke="#ffffff" stroke-width="4" stroke-opacity="1"></use></g></g><g><use xlink:href="#aMgmvA2FT" opacity="1" fill="#ffffff" fill-opacity="0.3"></use><g clip-path="url(#clipb1fA3Lyy0e)"><use xlink:href="#aMgmvA2FT" opacity="1" fill-opacity="0" stroke="#ffffff" stroke-width="0" stroke-opacity="1"></use></g></g><g><use xlink:href="#c13pBDPr9g" opacity="1" fill="#ffffff" fill-opacity="0.3"></use><g><use xlink:href="#c13pBDPr9g" opacity="1" fill-opacity="0" stroke="#ffffff" stroke-width="0" stroke-opacity="1"></use></g></g></g></g></svg>