<?xml version="1.0" encoding="UTF-8" standalone="no"?>
<!DOCTYPE svg PUBLIC "-//W3C//DTD SVG 1.1//EN" "http://www.w3.org/Graphics/SVG/1.1/DTD/svg11.dtd">
<svg version="1.1" xmlns="http://www.w3.org/2000/svg" xmlns:xlink="http://www.w3.org/1999/xlink" preserveAspectRatio="xMidYMid meet" viewBox="0 0 640 640" width="300" height="300"><defs><path d="M350 310L420 310L500 260L350 260L200 260L280 210L348.47 210" id="a1UxiOQtei"></path><path d="M350 310L420 310L500 260L350 260L200 260L280 210L348.47 210" id="a25gLsHXza"></path><path d="M350 310L420 310L500 260L350 260L200 260L280 210L348.47 210" id="k1fRUFWD4u"></path><path d="M300 260L300 330L350 410L350 110L400 190L400 260" id="abvoeAJgD"></path><path d="" id="cdT25czVi"></path><path d="M400 190L300 330" id="bMEusSmGX"></path><path d="M280 210L420 310" id="anOtxo5Re"></path><path d="M300 260L300 330L400 190L400 260L350 260L300 260Z" id="abdqRwC4A"></path><clipPath id="clipe2JPWtTV6"><use xlink:href="#abdqRwC4A" opacity="1"></use></clipPath><path d="M350 210L350 310L420 310L280 210L350 210Z" id="c34fwjBLUo"></path></defs><g><g><g><g><use xlink:href="#a1UxiOQtei" opacity="1" fill-opacity="0" stroke="#000000" stroke-width="4" stroke-opacity="1"></use></g></g><g><g><use xlink:href="#a25gLsHXza" opacity="1" fill-opacity="0" stroke="#000000" stroke-width="4" stroke-opacity="1"></use></g></g><g><g><use xlink:href="#k1fRUFWD4u" opacity="1" fill-opacity="0" stroke="#000000" stroke-width="4" stroke-opacity="1"></use></g></g><g><g><use xlink:href="#abvoeAJgD" opacity="1" fill-opacity="0" stroke="#000000" stroke-width="4" stroke-opacity="1"></use></g></g><g><g><use xlink:href="#cdT25czVi" opacity="1" fill-opacity="0" stroke="#000000" stroke-width="4" stroke-opacity="1"></use></g></g><g><g><use xlink:href="#bMEusSmGX" opacity="1" fill-opacity="0" stroke="#000000" stroke-width="4" stroke-opacity="1"></use></g></g><g><g><use xlink:href="#anOtxo5Re" opacity="1" fill-opacity="0" stroke="#000000" stroke-width="4" stroke-opacity="1"></use></g></g><g><use xlink:href="#abdqRwC4A" opacity="1" fill="#070804" fill-opacity="0.3"></use><g clip-path="url(#clipe2JPWtTV6)"><use xlink:href="#abdqRwC4A" opacity="1" fill-opacity="0" stroke="#000000" stroke-width="0" stroke-opacity="1"></use></g></g><g><use xlink:href="#c34fwjBLUo" opacity="1" fill="#000000" fill-opacity="0.3"></use><g><use xlink:href="#c34fwjBLUo" opacity="1" fill-opacity="0" stroke="#000000" stroke-width="0" stroke-opacity="1"></use></g></g></g></g></svg>